<?xml version="1.0" encoding="utf-8"?>
<!-- Generator: Adobe Illustrator 26.3.1, SVG Export Plug-In . SVG Version: 6.00 Build 0)  -->
<svg version="1.1" id="Calque_1" xmlns="http://www.w3.org/2000/svg" xmlns:xlink="http://www.w3.org/1999/xlink" x="0px" y="0px"
	 viewBox="0 0 148.9 149.3" style="enable-background:new 0 0 148.9 149.3;" xml:space="preserve">
<style type="text/css">
	.st0{display:none;fill:none;stroke:#65C3D7;stroke-width:5;stroke-miterlimit:10;}
	.st1{display:none;fill:none;stroke:url(#SVGID_1_);stroke-width:5;stroke-miterlimit:10;}
	
		.st2{display:none;fill:none;stroke:url(#SVGID_00000050626803024042761380000009463853960126675603_);stroke-width:5;stroke-miterlimit:10;}
	.st3{display:none;}
	.st4{display:inline;}
	.st5{fill:#BD297C;}
	.st6{display:none;fill:url(#SVGID_00000047746495034116598710000018070168569699749046_);}
	.st7{display:none;fill:url(#SVGID_00000059989411682903013770000003967694370811364005_);}
	.st8{display:none;fill:url(#SVGID_00000016766600476984125730000001562614296095057845_);}
	.st9{fill:url(#SVGID_00000018926172010668873340000008106284407626416529_);}
	.st10{fill:url(#SVGID_00000075875590629491048690000018188685302530943104_);}
	.st11{fill:url(#SVGID_00000011715696280157653450000004317153002678080397_);}
</style>
<path class="st0" d="M-151.2,106.5h-50.3c-6.6,0-12-5.4-12-12V20.3c0-6.6,5.4-12,12-12h50.3c6.6,0,12,5.4,12,12v74.2
	C-139.2,101.1-144.6,106.5-151.2,106.5z"/>
<linearGradient id="SVGID_1_" gradientUnits="userSpaceOnUse" x1="-185.7738" y1="100.416" x2="-166.8401" y2="119.3497" gradientTransform="matrix(1 0 0 -1 0 149.8898)">
	<stop  offset="5.327789e-09" style="stop-color:#65C3D7"/>
	<stop  offset="1" style="stop-color:#BD297C"/>
</linearGradient>
<ellipse class="st1" cx="-176.3" cy="40" rx="11.4" ry="10.3"/>
<linearGradient id="SVGID_00000028316901499076931700000012140705834327928220_" gradientUnits="userSpaceOnUse" x1="-190.1491" y1="59.8966" x2="-162.5847" y2="87.461" gradientTransform="matrix(1 0 0 -1 0 149.8898)">
	<stop  offset="5.327789e-09" style="stop-color:#65C3D7"/>
	<stop  offset="1" style="stop-color:#BD297C"/>
</linearGradient>
<path style="display:none;fill:none;stroke:url(#SVGID_00000028316901499076931700000012140705834327928220_);stroke-width:5;stroke-miterlimit:10;" d="
	M-191.1,84.9c-6.1-0.2,3.8-29.1,14.5-29.4c10.9-0.4,21.3,28.7,15.2,29.2C-168.3,85.1-180.2,85.1-191.1,84.9z"/>
<g class="st3">
	<g class="st4">
		<path class="st5" d="M-206.7,54.9c-4,0-8,0-12,0c-0.6,0-1.1,0-1.7,0c-1.3,0-2.6,1.1-2.5,2.5s1.1,2.5,2.5,2.5c4,0,8,0,12,0
			c0.6,0,1.1,0,1.7,0c1.3,0,2.6-1.1,2.5-2.5C-204.2,56-205.3,54.9-206.7,54.9L-206.7,54.9z"/>
	</g>
</g>
<g class="st3">
	<g class="st4">
		<path class="st5" d="M-206.7,23.5c-4,0-8,0-12,0c-0.6,0-1.1,0-1.7,0c-1.3,0-2.6,1.1-2.5,2.5s1.1,2.5,2.5,2.5c4,0,8,0,12,0
			c0.6,0,1.1,0,1.7,0c1.3,0,2.6-1.1,2.5-2.5C-204.2,24.6-205.3,23.5-206.7,23.5L-206.7,23.5z"/>
	</g>
</g>
<g class="st3">
	<g class="st4">
		<path class="st5" d="M-206.7,84.3c-4,0-8,0-12,0c-0.6,0-1.1,0-1.7,0c-1.3,0-2.6,1.1-2.5,2.5s1.1,2.5,2.5,2.5c4,0,8,0,12,0
			c0.6,0,1.1,0,1.7,0c1.3,0,2.6-1.1,2.5-2.5C-204.2,85.4-205.3,84.3-206.7,84.3L-206.7,84.3z"/>
	</g>
</g>
<rect x="176.2" y="-94.1" class="st5" width="66.6" height="61.3"/>
<linearGradient id="SVGID_00000110464872319460626280000000610245846665210545_" gradientUnits="userSpaceOnUse" x1="-38.9474" y1="43.3909" x2="2.8505" y2="43.3909" gradientTransform="matrix(0.9806 -0.1958 -0.1958 -0.9806 79.0653 112.5085)">
	<stop  offset="0" style="stop-color:#65C3D7"/>
	<stop  offset="1" style="stop-color:#C31D7B"/>
</linearGradient>
<path style="display:none;fill:url(#SVGID_00000110464872319460626280000000610245846665210545_);" d="M47.2,106.5
	c0,0-34.7-34.5,1.3-64c0.8-0.6,0.2,16.7,8,25.7c7.9,9,19.5,14.4,19.5,14.4S65.3,93.4,57.1,99.3C48.1,105.9,47.2,106.5,47.2,106.5z"
	/>
<linearGradient id="SVGID_00000183934667534801923610000013267093623597675943_" gradientUnits="userSpaceOnUse" x1="2.8349" y1="83.0632" x2="2.8349" y2="-7.0416" gradientTransform="matrix(0.9806 -0.1958 -0.1958 -0.9806 79.0653 112.5085)">
	<stop  offset="0" style="stop-color:#65C3D7"/>
	<stop  offset="1" style="stop-color:#C31D7B"/>
</linearGradient>
<path style="display:none;fill:url(#SVGID_00000183934667534801923610000013267093623597675943_);" d="M30.4,92.5
	c0.8-0.7,2,2.2,1.5,3c-11.4,17-20.4,25.9-15,29.8c5.7,4.2,33.6-12.6,68-42.9c33.7-29.7,48.6-55.5,47.1-57.8
	c-2.6-4-24.6,6.6-29.7,10.2c-2.4,1.7-5-0.9-4.7-1.1c3.2-2.6,26.7-20,36.9-14.7C149,26.5,118.7,61,92,87.1
	c-30.6,29.9-73,52.4-80.3,41.4C6,119.8,26,96.1,30.4,92.5z"/>
<linearGradient id="SVGID_00000157307810886376449660000015819345212368758946_" gradientUnits="userSpaceOnUse" x1="-14.968" y1="6.8783" x2="34.9983" y2="6.8783" gradientTransform="matrix(0.9806 -0.1958 -0.1958 -0.9806 79.0653 112.5085)">
	<stop  offset="0" style="stop-color:#65C3D7"/>
	<stop  offset="1" style="stop-color:#C31D7B"/>
</linearGradient>
<path style="display:none;fill:url(#SVGID_00000157307810886376449660000015819345212368758946_);" d="M64.3,115
	c0,0,24.7-17.8,28.9-23.4l18.3,4.3C88.2,124.5,66.1,115.5,64.3,115z"/>
<linearGradient id="SVGID_00000088832263887653586290000014076211241140527794_" gradientUnits="userSpaceOnUse" x1="-150.2951" y1="-360.4597" x2="-107.1717" y2="-360.4597" gradientTransform="matrix(0.9806 -0.1958 -0.1958 -0.9806 105.7463 -305.5275)">
	<stop  offset="0" style="stop-color:#FFFFFF"/>
	<stop  offset="0.5128" style="stop-color:#C7982B"/>
</linearGradient>
<path style="fill:url(#SVGID_00000088832263887653586290000014076211241140527794_);" d="M44.2,107.2c0,0-35.8-35.6,1.4-66
	c0.8-0.6,0.2,17.2,8.3,26.5C62,77,74,82.6,74,82.6S63,93.8,54.5,99.8C45.2,106.6,44.2,107.2,44.2,107.2z"/>
<linearGradient id="SVGID_00000085938434324566575260000015764271059830765752_" gradientUnits="userSpaceOnUse" x1="-107.155" y1="-319.5478" x2="-107.155" y2="-412.5388" gradientTransform="matrix(0.9806 -0.1958 -0.1958 -0.9806 105.7463 -305.5275)">
	<stop  offset="0" style="stop-color:#FFFFFF"/>
	<stop  offset="0.5128" style="stop-color:#C7982B"/>
</linearGradient>
<path style="fill:url(#SVGID_00000085938434324566575260000015764271059830765752_);" d="M26.8,92.9c0.8-0.8,2.1,2.3,1.5,3.1
	c-11.8,17.6-21.1,26.7-15.5,30.8c5.8,4.3,34.6-13,70.2-44.3c34.8-30.6,50.1-57.3,48.6-59.6c-2.7-4.1-25.3,6.8-30.6,10.4
	c-2.5,1.7-5.2-1-4.8-1.2c3.3-2.7,27.5-20.7,38.1-15.1c14.9,7.7-16.3,43.3-43.9,70.2C58.9,118,15.2,141.2,7.7,130
	C1.7,120.9,22.4,96.5,26.8,92.9z"/>
<linearGradient id="SVGID_00000123419798501538085730000001595065893824317605_" gradientUnits="userSpaceOnUse" x1="-125.5555" y1="-398.1625" x2="-74.0047" y2="-398.1625" gradientTransform="matrix(0.9806 -0.1958 -0.1958 -0.9806 105.7463 -305.5275)">
	<stop  offset="0" style="stop-color:#FFFFFF"/>
	<stop  offset="0.5128" style="stop-color:#C7982B"/>
</linearGradient>
<path style="fill:url(#SVGID_00000123419798501538085730000001595065893824317605_);" d="M61.8,116.1c0,0,25.5-18.4,29.8-24.2
	l19,4.5C86.6,125.8,63.8,116.5,61.8,116.1z"/>
</svg>
